<?xml version="1.0" standalone="no"?><!DOCTYPE svg PUBLIC "-//W3C//DTD SVG 1.1//EN" "http://www.w3.org/Graphics/SVG/1.1/DTD/svg11.dtd"><svg t="1698658817010" class="icon" viewBox="0 0 1024 1024" version="1.1" xmlns="http://www.w3.org/2000/svg" p-id="5809" xmlns:xlink="http://www.w3.org/1999/xlink" width="200" height="200"><path d="M428.6186 366.146745l-16.796254 8.69806c-27.293912 14.096855-61.186351 3.299264-75.183229-23.994648l-61.986173-120.173193c-14.596744-28.293689-3.399242-63.285883 24.894447-77.882627l16.796253-8.69806c26.394112-13.596967 58.886864-3.299264 72.483832 23.194826l63.785771 123.672413c14.096855 27.293912 3.299264 61.186351-23.994647 75.183229z" fill="#E5E5E5" p-id="5810"></path><path d="M219.065344 105.904796s52.588269-25.094402 91.879505-102.977029c0 0 8.498104-14.296811 14.496766 20.295473 0 0-3.799153 7.898238-30.193265 49.289005 0 0-8.598082 10.397681-2.899353 21.395227l16.196387 31.392998s4.099086 13.496989 19.195718 16.796253l-39.891102 24.494536s5.298818-13.496989-1.999554-27.593845l-12.097301-23.494759s-7.298372-14.096855-17.39612-2.899353c0 0-10.097748 11.197502-19.495651 15.996432 0 0-9.597859-6.998439-16.696275-9.297926-0.099978 0-9.597859-2.999331-1.099755-13.397012zM584.98372 256.47121c49.488961 85.780865 12.297257 200.055374-83.181445 255.143086s-213.052475 30.293243-262.541436-55.5876-26.294135-214.052252 69.084589-269.139964 227.049353-16.296365 276.638292 69.584478z" fill="#E5E5E5" p-id="5811"></path><path d="M278.652052 696.273105a293.134612 289.73537 0 1 0 586.269223 0 293.134612 289.73537 0 1 0-586.269223 0Z" fill="#E5E5E5" p-id="5812"></path><path d="M244.959568 642.585081c-35.492083 0-58.886864-39.391213-61.086374-43.290344-16.396343-27.293912-18.795807-50.088827-7.098417-67.684901 12.197279-18.295919 38.691369-28.193711 78.982382-29.393444 27.493867-0.799822 51.788448 2.59942 52.788225 2.799376 3.799153 0.599866 7.098417 2.59942 9.397904 5.398796 2.999331-3.999108 6.198617-7.898238 9.597859-11.697391 18.895785-20.695384 50.488738-50.288782 93.279192-73.983497 51.388537-28.493644 105.776405-41.290789 161.763916-38.191481 3.599197-4.498996 9.597859-6.698506 15.496543-4.998884 4.79893 1.399688 8.198171 2.59942 10.797592 3.799152 11.797368 5.498773 10.997547 15.096632 10.497658 17.896008-2.399465 12.897123-16.396343 13.197056-20.995317 13.397012-4.698952 0.099978-9.697837-0.099978-12.59719-0.399911-0.999777-0.099978-1.899576-0.199955-2.899353-0.199956C463.510816 408.237356 379.52955 485.120206 349.036352 518.41278c-9.197948 10.097748-16.396343 21.595183-21.395228 34.192372-22.794915 58.386976-48.789117 87.780419-79.382292 89.879951-1.099755 0.099978-2.199509 0.099978-3.299264 0.099978z m20.195495-111.375156c-28.193711 0-55.987511 4.399019-64.085705 16.596298-6.09864 9.297926 0.899799 24.994425 7.898238 36.591837 0.099978 0.099978 0.199955 0.299933 0.299933 0.399911 4.698952 8.298149 20.495428 29.693376 37.091727 28.493644 10.097748-0.699844 30.493198-10.897569 54.087934-71.384076 1.099755-2.799376 2.199509-5.498773 3.49922-8.098194-11.597413-1.599643-25.19438-2.59942-38.791347-2.59942z" fill="#E5E5E5" p-id="5813"></path><path d="M160.17848 811.14748c-7.198394 0-13.397012-5.298818-14.496767-12.59719-12.59719-89.280085 76.183006-178.460192 79.882181-182.159366 5.698729-5.698729 14.996655-5.598751 20.695384 0.099978 5.698729 5.698729 5.598751 14.996655-0.099978 20.695383-0.799822 0.799822-82.08169 82.681557-71.584032 157.364897 1.099755 7.998216-4.399019 15.396566-12.397234 16.496321-0.599866 0.099978-1.29971 0.099978-1.999554 0.099977z" fill="#E5E5E5" p-id="5814"></path><path d="M160.17848 796.550736m-49.08905 0a49.08905 49.08905 0 1 0 98.178099 0 49.08905 49.08905 0 1 0-98.178099 0Z" fill="#E5E5E5" p-id="5815"></path><path d="M159.078725 990.10756c-4.998885 0-9.797814-2.499442-12.59719-7.098416-4.199063-6.898461-1.899576-15.896454 4.998885-20.095518 7.39835-4.399019 11.597413-9.597859 12.697167-15.796476 2.199509-11.697391-6.09864-25.794246-9.697836-30.493198-36.691815-45.089942-15.396566-91.579572-14.496767-93.579126l26.494091 12.397235v-0.099978c-0.599866 1.29971-14.196833 32.392774 10.897569 62.98595 0.099978 0.099978 0.099978 0.199955 0.199955 0.199956 2.099532 2.699398 20.39545 26.993979 15.496543 53.788001-1.899576 10.097748-7.998216 24.494536-26.49409 35.592061-2.399465 1.499665-4.998885 2.199509-7.498327 2.199509z" fill="#E5E5E5" p-id="5816"></path><path d="M251.35814 1014.602096c-2.199509 0-4.299041-0.499888-6.398572-1.499665-7.298372-3.499219-10.297703-12.297257-6.698506-19.595629 16.49632-33.692484 20.595406-61.786218 11.697391-81.081913-9.197948-20.095517-29.393443-25.594291-30.293243-25.794247-0.199955 0-0.099978 0-0.299933-0.099977-50.988626-14.196833-57.187243-62.98595-57.387199-65.085482l28.993533-3.299264v-0.099978c0.199955 1.29971 4.498996 31.392997 36.091949 40.291013 3.699175 0.999777 34.492306 9.99777 49.189027 41.390767 13.097078 27.993756 9.097971 63.885749-11.797368 106.576226-2.499442 5.298818-7.698283 8.298149-13.097079 8.298149z" fill="#E5E5E5" p-id="5817"></path><path d="M199.969603 1024c-2.899353 0-5.898684-0.899799-8.398126-2.699398-6.598528-4.698952-8.198171-13.796922-3.49922-20.39545 39.191258-55.5876 13.796922-76.582917 10.797592-78.882404-0.799822-0.499888-1.499665-1.099755-2.19951-1.799599-44.390098-38.591392-47.389429-88.18033-47.489406-90.279861-0.399911-8.098194 5.798707-14.896677 13.8969-15.296588 7.998216-0.399911 14.896677 5.798707 15.296588 13.796922 0 0.699844 2.999331 39.791124 37.491637 69.784433 0.099978 0.099978 0.199955 0.199955 0.299933 0.199956 5.398796 3.999108 51.088604 40.890879-4.199064 119.273394-2.899353 4.099086-7.39835 6.298595-11.997324 6.298595z" fill="#E5E5E5" p-id="5818"></path><path d="M487.105553 366.146745l-16.796253 8.69806c-27.293912 14.096855-61.186351 3.299264-75.183229-23.994648l-61.986173-120.173193c-14.596744-28.293689-3.399242-63.285883 24.894447-77.882627l16.796253-8.69806c26.394112-13.596967 58.886864-3.299264 72.483831 23.194826l63.785772 123.672413c14.096855 27.293912 3.299264 61.186351-23.994648 75.183229z" fill="#E8525F" p-id="5819"></path><path d="M277.552297 105.904796s52.588269-25.094402 91.879505-102.977029c0 0 8.498104-14.296811 14.496766 20.295473 0 0-3.799153 7.898238-30.193264 49.289005 0 0-8.598082 10.397681-2.899354 21.395227l16.196387 31.392998s4.099086 13.496989 19.195718 16.796253l-39.891101 24.494536s5.298818-13.496989-1.999554-27.593845l-12.097302-23.494759s-7.298372-14.096855-17.396119-2.899353c0 0-10.097748 11.197502-19.495651 15.996432 0 0-9.597859-6.998439-16.696276-9.297926-0.199955 0-9.697837-2.999331-1.099755-13.397012z" fill="#E8525F" p-id="5820"></path><path d="M452.813203 528.410549c-61.886195 0-115.774175-29.393443-144.267819-78.582471-22.794915-39.491191-29.493421-89.380062-18.495874-136.969446 11.597413-49.988849 41.090834-90.879728 82.981489-115.074331 27.093956-15.596521 58.986842-23.89467 92.179438-23.89467 69.384523 0 136.669514 35.692038 167.362667 88.880174 45.989741 79.682226 10.797591 186.458407-78.582471 238.0469-31.29302 17.995986-66.285214 27.593845-101.17743 27.593844z" fill="#FFFFFF" p-id="5821"></path><path d="M465.210437 186.286866c65.085482 0 127.971454 33.192596 156.565076 82.681556 42.590499 73.683564 9.397904 172.86144-73.983497 220.950713-29.393443 16.996209-62.286106 25.994202-94.978813 25.994202-57.387199 0-107.27607-27.093956-133.37025-72.383854-21.195272-36.791793-27.493867-83.3814-17.096186-127.971453 10.797591-46.589607 38.191481-84.68111 77.082805-107.076115 25.094402-14.496766 54.787779-22.195049 85.780865-22.195049m0-24.994425c-33.89244 0-67.984835 7.998216-98.378055 25.594291-95.478702 55.087712-118.673528 183.359099-69.08459 269.139964 31.69293 54.887756 91.279639 84.881066 155.065411 84.881066 35.891994 0 73.083697-9.497881 107.476025-29.293466 95.478702-55.087712 132.670406-169.362221 83.181445-255.143086-33.792462-58.486954-105.676427-95.178769-178.260236-95.178769z" fill="#E8525F" p-id="5822"></path><path d="M630.273617 973.511262c-74.983274 0-145.467551-28.893555-198.455731-81.281868s-82.181668-121.972792-82.181668-195.956289 29.193488-143.567975 82.181668-195.956289c52.98818-52.388314 123.472457-81.281869 198.455731-81.281869s145.467551 28.893555 198.455731 81.281869 82.181668 121.972792 82.181668 195.956289-29.193488 143.567975-82.181668 195.956289c-52.98818 52.388314-123.472457 81.281869-198.455731 81.281868z" fill="#FFFFFF" p-id="5823"></path><path d="M630.273617 431.632137c36.191927 0 71.384077 6.998439 104.476695 20.795362 31.892886 13.397012 60.586485 32.492752 85.280977 56.787332 24.594514 24.294581 43.89021 52.588269 57.387198 84.181222 13.8969 32.59273 20.995317 67.185013 20.995317 102.97703 0 35.692038-7.098417 70.3843-20.995317 102.977029-13.496989 31.392997-32.892663 59.686686-57.487176 83.981266-24.594514 24.294581-53.288113 43.490299-85.280977 56.787333-32.99264 13.8969-68.18479 20.895339-104.376717 20.895339s-71.384077-6.998439-104.476695-20.795361c-31.892886-13.397012-60.586485-32.492752-85.280976-56.787333-24.594514-24.294581-43.89021-52.588269-57.387199-84.181222-13.8969-32.59273-20.995317-67.185013-20.995317-102.977029 0-35.692038 7.098417-70.3843 20.995317-102.977029 13.496989-31.492975 32.792685-59.786664 57.387199-84.181222 24.594514-24.294581 53.288113-43.490299 85.280976-56.787333 33.092618-13.696945 68.18479-20.695384 104.476695-20.695384m0-24.994424c-161.863894 0-293.134612 129.671075-293.134611 289.73537S468.409724 986.008475 630.273617 986.008475s293.134612-129.671075 293.134612-289.73537-131.270718-289.635392-293.134612-289.635392z" fill="#E8525F" p-id="5824"></path><path d="M303.446521 639.685728c-33.992417 0-56.587377-38.391436-58.586931-41.890656-15.796476-26.294135-18.195941-47.989295-7.098417-64.585593 25.994202-39.09128 118.373595-26.894001 128.871254-25.394335 4.598974 0.699844 8.098194 3.89913 9.497881 7.998215 3.599197-5.298818 7.698283-10.397681 12.097301-15.19661 18.795807-20.495428 50.088827-49.888871 92.579349-73.38363 51.388537-28.493644 105.876383-41.190812 161.863894-37.79157 2.59942-4.399019 7.998216-6.698506 13.297034-5.198841 7.998216 2.299487 21.495205 6.09864 19.195718 18.295919-1.999554 10.497658-13.796922 10.897569-18.195941 10.997547-4.598974 0.099978-9.397904-0.099978-12.19728-0.399911-0.999777-0.099978-1.999554-0.199955-2.999331-0.199955-120.573104-7.598305-205.354192 69.884411-236.247301 103.576895-9.497881 10.397681-16.896231 22.195049-21.895116 35.092172-22.395004 57.287221-47.589384 86.080798-76.88285 88.080353h-3.299264z m19.99554-111.475134c-28.393666 0-57.387199 4.399019-66.285214 17.896008-6.998439 10.497658 0.399911 27.393889 7.79826 39.691146 0.099978 0.099978 0.099978 0.199955 0.199956 0.299933 4.898907 8.798037 21.695161 31.29302 39.791124 29.99331 18.595852-1.29971 38.691369-27.293912 56.687355-73.183675 1.599643-4.099086 3.399242-8.198171 5.398795-12.097302-1.199732 0.199955-2.59942 0.299933-3.89913 0.099978-11.29748-1.499665-25.394335-2.699398-39.691146-2.699398z" fill="#E8525F" p-id="5825"></path><path d="M218.665433 808.248127c-5.698729 0-10.697614-4.199063-11.597413-10.097748-12.397235-87.780419 75.383185-175.960749 79.082359-179.659923 4.598974-4.498996 11.997324-4.498996 16.496321 0.099977s4.498996 11.997324-0.099978 16.49632c-0.799822 0.799822-83.181445 83.681334-72.383854 159.86434 0.899799 6.398573-3.599197 12.297257-9.997769 13.197056-0.399911 0.099978-0.999777 0.099978-1.499666 0.099978z" fill="#E8525F" p-id="5826"></path><path d="M218.665433 796.550736m-49.08905 0a49.08905 49.08905 0 1 0 98.1781 0 49.08905 49.08905 0 1 0-98.1781 0Z" fill="#E8525F" p-id="5827"></path><path d="M217.465701 987.208207c-3.999108 0-7.79826-1.999554-9.99777-5.698729-3.299264-5.498773-1.499665-12.697168 3.999108-15.996432 8.198171-4.898907 12.797145-10.797591 14.096855-17.79603 2.799376-14.996655-9.497881-31.592953-10.297703-32.692707-35.692038-43.790232-15.19661-88.680218-14.296811-90.579795 2.799376-5.798707 9.697837-8.398127 15.596521-5.598751 5.798707 2.699398 8.298149 9.697837 5.598752 15.496543-0.699844 1.499665-14.896677 33.992417 11.297479 65.985281l0.199956 0.199956c0.799822 0.999777 19.695607 25.494313 14.896677 51.388537-2.59942 13.8969-10.997547 25.19438-25.094402 33.592506-1.799599 1.099755-3.89913 1.699621-5.998662 1.699621z" fill="#E8525F" p-id="5828"></path><path d="M309.845094 1011.702743c-1.699621 0-3.499219-0.399911-5.098863-1.199732-5.798707-2.799376-8.198171-9.797814-5.398795-15.596521 17.196164-35.292128 21.095294-63.485838 11.597413-83.881289-9.897792-21.095294-31.69293-26.993979-31.992864-27.093956-0.099978 0-0.199955-0.099978-0.299933-0.099978-49.08905-13.596967-54.987734-60.586485-55.287667-62.586039-0.699844-6.398573 3.89913-12.197279 10.297703-12.897123 6.398573-0.699844 12.197279 3.799153 12.897123 10.197725 0.199955 1.499665 4.698952 33.392551 38.191481 42.690477 3.199286 0.799822 33.092618 9.397904 47.289451 39.791124 12.697168 27.193934 8.69806 62.186128-11.797368 104.076784-1.899576 4.199063-6.09864 6.598528-10.397681 6.598528z" fill="#E8525F" p-id="5829"></path><path d="M258.456557 1021.100647c-2.299487 0-4.698952-0.699844-6.698506-2.099532-5.298818-3.699175-6.49855-10.997547-2.799375-16.296365 40.790901-57.887087 13.397012-80.482047 10.097747-82.881512-0.699844-0.499888-1.399688-0.999777-1.999554-1.599643-43.390321-37.79157-46.389652-86.180776-46.489629-88.280307-0.299933-6.49855 4.598974-11.897346 11.097524-12.297257 6.398573-0.299933 11.897346 4.598974 12.297257 10.997546 0 0.699844 2.999331 40.890879 38.491414 71.883966 0.199955 0.099978 0.299933 0.299933 0.499888 0.39991 5.19884 3.799153 48.789117 39.09128-4.898907 115.174309-2.399465 3.199286-5.998662 4.998885-9.597859 4.998885z" fill="#E8525F" p-id="5830"></path><path d="M830.129036 604.693533c32.792685 71.484054 9.497881 152.366012-26.894001 171.261797-36.49186 18.795807-17.39612-64.685571-48.889094-128.871253-34.992194-71.284099-119.47335-107.975914-82.98149-126.771721s125.571989 12.197279 158.764585 84.381177zM574.186128 273.567396c20.895339 29.99331 16.896231 68.884634 1.799599 80.482047-15.096632 11.597413-13.297034-28.093733-32.992641-54.887756-21.895116-29.693376-63.485838-39.491191-48.389206-51.088604 15.096632-11.597413 58.486954-4.79893 79.582248 25.494313z" fill="#F8CBCF" p-id="5831"></path></svg>